<svg width="15" height="15" viewBox="0 0 15 15" fill="none" xmlns="http://www.w3.org/2000/svg">
<path d="M7.5 0C3.35473 0 0 3.3544 0 7.5C0 11.6453 3.3544 15 7.5 15C11.6453 15 15 11.6456 15 7.5C15 3.3547 11.6456 0 7.5 0ZM7.5 13.8281C4.00242 13.8281 1.17188 10.9978 1.17188 7.5C1.17188 4.00239 4.00216 1.17188 7.5 1.17188C10.9976 1.17188 13.8281 4.00216 13.8281 7.5C13.8281 10.9976 10.9978 13.8281 7.5 13.8281Z" fill="#ADBFFF"/>
<path d="M10.0663 9.23744L8.32897 7.50007L10.0663 5.76271C10.2951 5.5339 10.2952 5.16292 10.0664 4.93408C9.83749 4.70524 9.4665 4.70527 9.23772 4.93408L7.50033 6.67144L5.76294 4.93408C5.53416 4.70524 5.16312 4.70524 4.93431 4.93408C4.7055 5.16292 4.7055 5.5339 4.93434 5.76271L6.6717 7.50007L4.93434 9.23744C4.7055 9.46627 4.70547 9.83726 4.93431 10.0661C5.16321 10.2949 5.53419 10.2948 5.76294 10.0661L7.50033 8.32871L9.23772 10.0661C9.46647 10.2949 9.83752 10.2949 10.0664 10.0661C10.2952 9.83723 10.2952 9.46625 10.0663 9.23744Z" fill="#ADBFFF"/>
</svg>
