<svg width="13" height="15" viewBox="0 0 13 15" fill="none" xmlns="http://www.w3.org/2000/svg">
<path d="M1.5 7C1.1 7.4 1 8.16667 1 8.5L1.5 9.5C1.5 9.66667 1.1 10.5 1.5 10.5C2 10.5 1.5 11.5 2 12C2.5 12.5 3 12.5 3 13C3 13.5 3 13.5 7.5 14.5C8.5 14.5 8.5 14.5 10 13C10.5 12 11 12 11.5 11.5C12 11 10.5 11 11.5 10C12.5 9 12 9 11.5 8C11.1 7.2 11.8333 7 12 7H10C9.6 7 6.16667 6.66667 4.5 6.5C3.66667 6.5 1.9 6.6 1.5 7Z" fill="white"/>
<path d="M11.334 6.28652V4.83398C11.334 2.16853 9.16546 0 6.5 0C3.83454 0 1.66602 2.16853 1.66602 4.83398V6.28652C1.15452 6.46793 0.787109 6.9564 0.787109 7.5293V9.28711C0.787109 12.4372 3.34991 15 6.5 15C9.65009 15 12.2129 12.4372 12.2129 9.28711V7.5293C12.2129 6.9564 11.8455 6.46793 11.334 6.28652ZM2.54492 4.83398C2.54492 2.65315 4.31917 0.873047 6.5 0.873047C8.68083 0.873047 10.4551 2.65315 10.4551 4.83398V6.21094H9.57617V4.83398C9.57617 3.13778 8.1962 1.75781 6.5 1.75781C4.8038 1.75781 3.42383 3.13778 3.42383 4.83398V6.21094H2.54492V4.83398ZM8.69727 4.83398V6.21094H4.30273V4.83398C4.30273 3.62241 5.28843 2.63086 6.5 2.63086C7.71157 2.63086 8.69727 3.62241 8.69727 4.83398ZM11.334 9.28711C11.334 11.9526 9.16546 14.127 6.5 14.127C3.83454 14.127 1.66602 11.9526 1.66602 9.28711V7.5293C1.66602 7.28698 1.86315 7.08984 2.10547 7.08984H10.8945C11.1368 7.08984 11.334 7.28698 11.334 7.5293V9.28711Z" fill="white"/>
<path d="M6.5 7.96875C5.77306 7.96875 5.18164 8.56017 5.18164 9.28711C5.18164 9.86001 5.54905 10.3485 6.06055 10.5299V11.9238C6.06055 12.1665 6.2573 12.3633 6.5 12.3633C6.7427 12.3633 6.93945 12.1665 6.93945 11.9238V10.5299C7.45095 10.3485 7.81836 9.86001 7.81836 9.28711C7.81836 8.56017 7.22694 7.96875 6.5 7.96875ZM6.5 9.72656C6.25769 9.72656 6.06055 9.52942 6.06055 9.28711C6.06055 9.04479 6.25769 8.84766 6.5 8.84766C6.74231 8.84766 6.93945 9.04479 6.93945 9.28711C6.93945 9.52942 6.74231 9.72656 6.5 9.72656Z" fill="#163763"/>
</svg>
