<svg width="15" height="15" viewBox="0 0 15 15" fill="none" xmlns="http://www.w3.org/2000/svg">
<path d="M12.334 6.28652V4.83398C12.334 2.16853 10.1655 0 7.5 0C4.83454 0 2.66602 2.16853 2.66602 4.83398V6.28652C2.15452 6.46793 1.78711 6.9564 1.78711 7.5293V9.28711C1.78711 12.4372 4.34991 15 7.5 15C10.6501 15 13.2129 12.4372 13.2129 9.28711V7.5293C13.2129 6.9564 12.8455 6.46793 12.334 6.28652ZM3.54492 4.83398C3.54492 2.65315 5.31917 0.873047 7.5 0.873047C9.68083 0.873047 11.4551 2.65315 11.4551 4.83398V6.21094H10.5762V4.83398C10.5762 3.13778 9.1962 1.75781 7.5 1.75781C5.8038 1.75781 4.42383 3.13778 4.42383 4.83398V6.21094H3.54492V4.83398ZM9.69727 4.83398V6.21094H5.30273V4.83398C5.30273 3.62241 6.28843 2.63086 7.5 2.63086C8.71157 2.63086 9.69727 3.62241 9.69727 4.83398ZM12.334 9.28711C12.334 11.9526 10.1655 14.127 7.5 14.127C4.83454 14.127 2.66602 11.9526 2.66602 9.28711V7.5293C2.66602 7.28698 2.86315 7.08984 3.10547 7.08984H11.8945C12.1368 7.08984 12.334 7.28698 12.334 7.5293V9.28711Z" fill="#ADBFFF"/>
<path d="M7.5 7.96875C6.77306 7.96875 6.18164 8.56017 6.18164 9.28711C6.18164 9.86001 6.54905 10.3485 7.06055 10.5299V11.9238C7.06055 12.1665 7.2573 12.3633 7.5 12.3633C7.7427 12.3633 7.93945 12.1665 7.93945 11.9238V10.5299C8.45095 10.3485 8.81836 9.86001 8.81836 9.28711C8.81836 8.56017 8.22694 7.96875 7.5 7.96875ZM7.5 9.72656C7.25769 9.72656 7.06055 9.52942 7.06055 9.28711C7.06055 9.04479 7.25769 8.84766 7.5 8.84766C7.74231 8.84766 7.93945 9.04479 7.93945 9.28711C7.93945 9.52942 7.74231 9.72656 7.5 9.72656Z" fill="#ADBFFF"/>
</svg>
