<svg width="24" height="24" viewBox="0 0 24 24" fill="none" xmlns="http://www.w3.org/2000/svg">
<g clip-path="url(#clip0)">
<path d="M15.3104 8.69519C14.9999 8.69519 14.7483 8.9468 14.7483 9.25725V19.8802C14.7483 20.1904 14.9999 20.4423 15.3104 20.4423C15.6208 20.4423 15.8724 20.1904 15.8724 19.8802V9.25725C15.8724 8.9468 15.6208 8.69519 15.3104 8.69519Z" fill="#FA8484"/>
<path d="M8.67803 8.69519C8.36758 8.69519 8.11597 8.9468 8.11597 9.25725V19.8802C8.11597 20.1904 8.36758 20.4423 8.67803 20.4423C8.98848 20.4423 9.24009 20.1904 9.24009 19.8802V9.25725C9.24009 8.9468 8.98848 8.69519 8.67803 8.69519Z" fill="#FA8484"/>
<path d="M3.84439 7.14497V20.9929C3.84439 21.8114 4.14452 22.5801 4.66881 23.1316C5.19069 23.6847 5.91698 23.9986 6.67708 23.9999H17.3114C18.0717 23.9986 18.798 23.6847 19.3197 23.1316C19.844 22.5801 20.1441 21.8114 20.1441 20.9929V7.14497C21.1863 6.86833 21.8617 5.86145 21.7223 4.79201C21.5826 3.72278 20.6717 2.92294 19.5932 2.92272H16.7155V2.22015C16.7188 1.62933 16.4852 1.062 16.067 0.644624C15.6487 0.227471 15.0805 -0.00481738 14.4897 1.28148e-05H9.49879C8.90797 -0.00481738 8.33976 0.227471 7.92151 0.644624C7.50326 1.062 7.26965 1.62933 7.27295 2.22015V2.92272H4.39525C3.3168 2.92294 2.40587 3.72278 2.26623 4.79201C2.12681 5.86145 2.80216 6.86833 3.84439 7.14497V7.14497ZM17.3114 22.8758H6.67708C5.71609 22.8758 4.9685 22.0503 4.9685 20.9929V7.19437H19.02V20.9929C19.02 22.0503 18.2724 22.8758 17.3114 22.8758ZM8.39706 2.22015C8.39333 1.92748 8.50838 1.64579 8.71608 1.43919C8.92356 1.23259 9.2059 1.11908 9.49879 1.12413H14.4897C14.7826 1.11908 15.0649 1.23259 15.2724 1.43919C15.4801 1.64557 15.5952 1.92748 15.5914 2.22015V2.92272H8.39706V2.22015ZM4.39525 4.04684H19.5932C20.152 4.04684 20.6049 4.49978 20.6049 5.05854C20.6049 5.61731 20.152 6.07025 19.5932 6.07025H4.39525C3.83648 6.07025 3.38354 5.61731 3.38354 5.05854C3.38354 4.49978 3.83648 4.04684 4.39525 4.04684V4.04684Z" fill="#FA8484"/>
<path d="M11.9944 8.69519C11.684 8.69519 11.4324 8.9468 11.4324 9.25725V19.8802C11.4324 20.1904 11.684 20.4423 11.9944 20.4423C12.3049 20.4423 12.5565 20.1904 12.5565 19.8802V9.25725C12.5565 8.9468 12.3049 8.69519 11.9944 8.69519Z" fill="#FA8484"/>
</g>
<defs>
<clipPath id="clip0">
<rect width="24" height="24" fill="white"/>
</clipPath>
</defs>
</svg>
