<svg width="7" height="5" viewBox="0 0 7 5" fill="none" xmlns="http://www.w3.org/2000/svg">
<path d="M3.77314 4.00078L6.88817 0.885692C6.96028 0.813644 7 0.717466 7 0.614914C7 0.512362 6.96028 0.416184 6.88817 0.344136L6.65882 0.114731C6.50938 -0.0345444 6.26649 -0.0345444 6.11727 0.114731L3.50145 2.73055L0.882733 0.111828C0.810628 0.0397799 0.714507 -2.74748e-07 0.612012 -2.79228e-07C0.509403 -2.83713e-07 0.413282 0.0397799 0.34112 0.111828L0.111829 0.341233C0.0397237 0.413338 6.36e-07 0.509459 6.31517e-07 0.612011C6.27034e-07 0.714563 0.0397237 0.810741 0.111829 0.882789L3.22971 4.00078C3.30204 4.073 3.39861 4.11267 3.50128 4.11244C3.60434 4.11267 3.70086 4.073 3.77314 4.00078Z" fill="white"/>
</svg>
