<svg width="15" height="15" viewBox="0 0 15 15" fill="none" xmlns="http://www.w3.org/2000/svg">
<path d="M2.32786 8.18195H10.2272C10.6037 8.18195 10.909 7.87668 10.909 7.50014C10.909 7.12359 10.6037 6.81832 10.2272 6.81832H2.32786L3.20941 5.93682C3.47568 5.67059 3.47568 5.23887 3.20941 4.97259C2.94323 4.70632 2.5115 4.70632 2.24518 4.97259L0.199864 7.01791C0.184045 7.03368 0.169136 7.05018 0.154955 7.06746C0.1515 7.07168 0.148545 7.07623 0.145182 7.08055C0.134773 7.09377 0.124545 7.10705 0.115182 7.12105C0.112455 7.12514 0.110227 7.12946 0.107545 7.13359C0.0981818 7.14823 0.089 7.163 0.0807273 7.17841C0.0791364 7.18145 0.0778182 7.18468 0.0762273 7.18773C0.0676364 7.20441 0.0593636 7.22132 0.0521364 7.23877C0.0512273 7.24091 0.0505909 7.24318 0.0497273 7.24536C0.0423182 7.26373 0.0354545 7.28232 0.0296364 7.30145C0.0288636 7.30386 0.0284545 7.30636 0.0277727 7.30882C0.0222727 7.32759 0.0172273 7.34655 0.0133636 7.36595C0.0122273 7.37173 0.0117273 7.37768 0.0106818 7.3835C0.00786364 7.39959 0.00504545 7.41568 0.00345455 7.43209C0.00113636 7.45459 0 7.47732 0 7.50014C0 7.52295 0.00113636 7.54568 0.00345455 7.56823C0.00504545 7.58486 0.00795455 7.60109 0.0107273 7.61732C0.0117273 7.62295 0.0122273 7.62873 0.0133636 7.63432C0.0172727 7.65391 0.0222727 7.67305 0.0278182 7.692C0.0285 7.69423 0.0289091 7.69659 0.0295909 7.69882C0.0354545 7.71805 0.0423182 7.73682 0.0498182 7.75536C0.0506364 7.75736 0.0512273 7.7595 0.0520909 7.7615C0.0593636 7.77909 0.0676818 7.79609 0.0763636 7.81286C0.0778636 7.81582 0.0791364 7.81891 0.0806818 7.82186C0.0890455 7.83736 0.0982727 7.85227 0.107773 7.86705C0.110318 7.87105 0.1125 7.87527 0.115136 7.87918C0.124545 7.89323 0.134864 7.90659 0.145227 7.91986C0.148545 7.92414 0.1515 7.92864 0.154909 7.93282C0.169136 7.95005 0.184045 7.96659 0.199818 7.98236L2.24514 10.0277C2.37827 10.1609 2.55277 10.2274 2.72727 10.2274C2.90177 10.2274 3.07627 10.1609 3.20936 10.0277C3.47564 9.76141 3.47564 9.32973 3.20936 9.06345L2.32786 8.18195Z" fill="#ADBFFF"/>
<path d="M9.42248 1.92273C7.56139 1.92273 5.82984 2.846 4.79052 4.39241C4.58052 4.70491 4.66361 5.12855 4.97611 5.33859C5.28866 5.54859 5.71225 5.46559 5.92234 5.153C6.70784 3.98414 8.0163 3.28632 9.42248 3.28632C11.7459 3.28637 13.6362 5.17659 13.6362 7.50005C13.6362 9.8235 11.7459 11.7137 9.42248 11.7137C8.02043 11.7137 6.71411 11.019 5.92802 9.8555C5.71716 9.54346 5.29343 9.46146 4.98134 9.67223C4.66934 9.88305 4.58725 10.3069 4.79807 10.6189C5.83811 12.1583 7.56684 13.0774 9.42248 13.0774C12.4978 13.0774 14.9998 10.5754 14.9998 7.50005C14.9998 4.42468 12.4978 1.92273 9.42248 1.92273Z" fill="#ADBFFF"/>
</svg>
