<svg width="158" height="71" viewBox="35 8 138 70" fill="none" xmlns="http://www.w3.org/2000/svg">
<path d="M33.8706 18.8117C42.2401 18.8117 47.9876 14.4763 52.0206 14.4763C56.0536 14.4763 64.5237 16.7947 64.5237 35.3476C64.5237 53.9005 53.1289 56.6229 48.693 56.6229C27.921 56.6241 19.0481 18.8117 33.8706 18.8117Z" fill="#E3E9F1"/>
<path d="M59.3649 18.7384C58.9434 18.7384 58.5314 18.6134 58.181 18.3792C57.8305 18.1451 57.5574 17.8123 57.3961 17.4229C57.2348 17.0335 57.1926 16.605 57.2748 16.1916C57.3571 15.7782 57.56 15.3985 57.8581 15.1005C58.1561 14.8025 58.5358 14.5995 58.9492 14.5173C59.3625 14.435 59.791 14.4772 60.1804 14.6385C60.5698 14.7998 60.9026 15.073 61.1368 15.4234C61.371 15.7739 61.4959 16.1859 61.4959 16.6074C61.4952 17.1723 61.2705 17.714 60.871 18.1134C60.4715 18.5129 59.9299 18.7377 59.3649 18.7384ZM59.3649 15.897C59.2244 15.897 59.0871 15.9386 58.9703 16.0167C58.8535 16.0947 58.7624 16.2056 58.7087 16.3354C58.6549 16.4652 58.6408 16.6081 58.6682 16.7458C58.6957 16.8836 58.7633 17.0102 58.8626 17.1095C58.962 17.2089 59.0886 17.2765 59.2263 17.3039C59.3641 17.3313 59.5069 17.3173 59.6367 17.2635C59.7665 17.2097 59.8775 17.1187 59.9555 17.0019C60.0336 16.8851 60.0752 16.7478 60.0752 16.6073C60.075 16.4189 60.0001 16.2384 59.867 16.1052C59.7338 15.9721 59.5532 15.8972 59.3649 15.897V15.897Z" fill="#A4AFC1"/>
<path d="M54.8627 22.6454C54.8605 21.8925 54.5604 21.171 54.028 20.6386C53.4957 20.1062 52.7742 19.8062 52.0213 19.804H35.6832C34.9303 19.8062 34.2089 20.1062 33.6765 20.6386C33.1441 21.171 32.844 21.8925 32.8418 22.6454V44.6667C32.844 45.4196 33.1441 46.1411 33.6765 46.6735C34.2089 47.2059 34.9303 47.5059 35.6832 47.5081H52.0213C52.3945 47.5082 52.764 47.4348 53.1088 47.292C53.4536 47.1493 53.7668 46.94 54.0307 46.6761C54.2946 46.4123 54.5039 46.099 54.6466 45.7542C54.7894 45.4094 54.8628 45.0399 54.8627 44.6667V22.6454Z" fill="#F3F3F1"/>
<path d="M37.1038 25.8418H42.0759V30.8143H37.1038V25.8418Z" fill="#2FDF84"/>
<path d="M37.1038 25.8418H40.3003V30.8143H37.1038V25.8418Z" fill="#00B871"/>
<path d="M36.0383 44.6662V22.6454C36.0406 21.8925 36.3406 21.171 36.873 20.6386C37.4054 20.1062 38.1269 19.8062 38.8798 19.804H35.6832C34.9303 19.8062 34.2089 20.1062 33.6765 20.6386C33.1441 21.171 32.844 21.8925 32.8418 22.6454V44.6667C32.844 45.4196 33.1441 46.1411 33.6765 46.6735C34.2089 47.2059 34.9303 47.5059 35.6832 47.5081H38.8798C38.1268 47.5059 37.4053 47.2058 36.8729 46.6733C36.3405 46.1408 36.0404 45.4192 36.0383 44.6662V44.6662Z" fill="#D5DBE1"/>
<path d="M42.8584 48.573H35.6831C34.6471 48.5722 33.6539 48.1603 32.9214 47.4278C32.1889 46.6953 31.777 45.702 31.7761 44.6661V22.6452C31.777 21.6093 32.1889 20.6161 32.9214 19.8835C33.6539 19.151 34.6471 18.7391 35.6831 18.7383H52.0211C53.057 18.7391 54.0503 19.151 54.7828 19.8835C55.5153 20.6161 55.9272 21.6093 55.9281 22.6452V31.6456H53.7974V22.6452C53.7968 22.1744 53.6094 21.723 53.2764 21.39C52.9434 21.0571 52.492 20.8699 52.0211 20.8693H35.6831C35.2123 20.87 34.7609 21.0573 34.428 21.3902C34.0951 21.7231 33.9078 22.1744 33.9072 22.6452V44.6665C33.9078 45.1373 34.0951 45.5887 34.428 45.9216C34.7609 46.2545 35.2123 46.4418 35.6831 46.4425H42.8584V48.573Z" fill="black"/>
<path d="M42.0763 31.8799H37.1038C36.8213 31.8796 36.5504 31.7673 36.3507 31.5675C36.1509 31.3678 36.0386 31.0969 36.0383 30.8144V25.8419C36.0386 25.5594 36.1509 25.2885 36.3507 25.0887C36.5504 24.8889 36.8213 24.7766 37.1038 24.7764H42.0763C42.3589 24.7765 42.6299 24.8888 42.8297 25.0886C43.0295 25.2884 43.1418 25.5593 43.1419 25.8419V30.8144C43.1418 31.0969 43.0295 31.3679 42.8297 31.5677C42.6299 31.7675 42.3589 31.8798 42.0763 31.8799ZM38.1694 29.7485H41.0108V26.9074H38.1694V29.7485Z" fill="black"/>
<path d="M45.6282 25.1316H52.0214V27.2626H45.6282V25.1316Z" fill="black"/>
<path d="M36.0383 40.7593H42.4315V42.8903H36.0383V40.7593Z" fill="black"/>
<path d="M36.0383 35.0764H45.3189L43.7538 37.2075H36.0383V35.0764Z" fill="black"/>
<path d="M53.2143 51.1724C57.7882 51.1724 61.4962 47.4645 61.4962 42.8905C61.4962 38.3166 57.7882 34.6086 53.2143 34.6086C48.6403 34.6086 44.9324 38.3166 44.9324 42.8905C44.9324 47.4645 48.6403 51.1724 53.2143 51.1724Z" fill="#2FDF84"/>
<path d="M48.1731 42.8904C48.1735 40.9753 48.8375 39.1196 50.052 37.6391C51.2666 36.1585 52.9567 35.1445 54.8347 34.7698C53.7008 34.5435 52.5322 34.5571 51.4039 34.8099C50.2757 35.0626 49.2128 35.5487 48.2838 36.2371C47.3549 36.9254 46.5803 37.8006 46.01 38.8064C45.4397 39.8122 45.0864 40.9262 44.9727 42.0768C44.8591 43.2274 44.9876 44.3891 45.35 45.487C45.7125 46.585 46.3008 47.5948 47.0772 48.4516C47.8535 49.3084 48.8007 49.9931 49.8577 50.4617C50.9147 50.9303 52.0581 51.1724 53.2143 51.1723C53.7584 51.1723 54.3012 51.1182 54.8347 51.0111C52.9567 50.6363 51.2666 49.6223 50.052 48.1417C48.8374 46.6611 48.1735 44.8054 48.1731 42.8904V42.8904Z" fill="#00B871"/>
<path d="M53.2142 52.2524C51.3625 52.2524 49.5525 51.7033 48.0129 50.6746C46.4733 49.6459 45.2733 48.1837 44.5647 46.473C43.8561 44.7623 43.6707 42.8799 44.0319 41.0638C44.3932 39.2477 45.2848 37.5795 46.5942 36.2702C47.9035 34.9609 49.5717 34.0692 51.3877 33.708C53.2038 33.3467 55.0862 33.5321 56.7969 34.2407C58.5077 34.9493 59.9698 36.1493 60.9986 37.6889C62.0273 39.2285 62.5764 41.0386 62.5764 42.8902C62.5735 45.3724 61.5862 47.752 59.8311 49.5071C58.076 51.2622 55.6963 52.2495 53.2142 52.2524V52.2524ZM53.2142 35.6885C51.7898 35.6885 50.3975 36.1109 49.2132 36.9022C48.0288 37.6936 47.1058 38.8183 46.5607 40.1343C46.0156 41.4502 45.873 42.8982 46.1509 44.2952C46.4288 45.6922 47.1147 46.9754 48.1218 47.9826C49.129 48.9898 50.4122 49.6757 51.8092 49.9536C53.2062 50.2314 54.6542 50.0888 55.9702 49.5437C57.2861 48.9987 58.4109 48.0756 59.2022 46.8913C59.9935 45.707 60.4159 44.3146 60.4159 42.8902C60.4137 40.9809 59.6543 39.1504 58.3042 37.8003C56.954 36.4502 55.1235 35.6908 53.2142 35.6886V35.6885Z" fill="black"/>
<path d="M51.774 46.8515C51.6321 46.8515 51.4917 46.8235 51.3607 46.7691C51.2297 46.7147 51.1107 46.635 51.0106 46.5346L48.1299 43.6539L49.6584 42.1254L51.7235 44.1897L56.0041 39.2983L57.6304 40.7202L52.5892 46.4813C52.4918 46.5925 52.3726 46.6825 52.2391 46.746C52.1056 46.8094 51.9605 46.8448 51.8128 46.85C51.7999 46.8512 51.7869 46.8517 51.774 46.8515Z" fill="black"/>
<path d="M86.1114 31.6429V29H76V43.9348H79.1292V38.3553H85.5794V35.7123H79.1292V31.6429H86.1114ZM92.3698 32.9435C88.9851 32.9435 86.8352 35.1459 86.8352 38.607C86.8352 42.068 88.9851 44.2705 92.3698 44.2705C95.7544 44.2705 97.9044 42.068 97.9044 38.607C97.9044 35.1459 95.7544 32.9435 92.3698 32.9435V32.9435ZM92.3698 35.2089C93.8386 35.2089 94.7753 36.5303 94.7753 38.607C94.7753 40.6836 93.8387 42.0051 92.3698 42.0051C90.9009 42.0051 89.9643 40.6836 89.9643 38.607C89.9643 36.5303 90.901 35.2089 92.3698 35.2089V35.2089ZM105.419 33.1112C104.142 33.1112 103.184 33.6356 102.46 34.7893H102.417V33.2791H99.6713V43.9348H102.651V38.9007C102.651 36.8031 103.631 35.6704 105.461 35.6704C105.776 35.6765 106.09 35.7116 106.398 35.7753V33.2371C106.078 33.1541 105.749 33.1118 105.419 33.1112V33.1112ZM120.107 33.0273C118.446 33.0273 117.467 33.7196 116.658 34.8523C116.062 33.6567 114.955 33.0273 113.444 33.0273C112.145 33.0273 111.23 33.4888 110.442 34.4957H110.4V33.2791H107.59V43.9348H110.57V38.4601C110.57 36.4672 111.251 35.3342 112.55 35.3342C113.657 35.3342 114.253 36.1313 114.253 37.4947V43.9348H117.233V38.4601C117.233 36.4464 117.936 35.3342 119.213 35.3342C120.256 35.3342 120.916 36.0683 120.916 37.6835V43.9348H123.896V37.3903C123.896 34.4957 122.427 33.0273 120.107 33.0273H120.107ZM141.138 31.6429V29H131.027V43.9348H134.156V38.3553H140.606V35.7123H134.156V31.6429H141.138ZM145.715 31.5171V29H142.735V31.5171H145.715ZM145.715 43.9348V33.2791H142.735V43.9348H145.715ZM151.165 43.9348V29H148.185V43.9348H151.165ZM156.614 43.9348V29H153.634V43.9348H156.614ZM163.767 42.1939C162.49 42.1939 161.404 41.4177 161.319 39.2153H169.089C169.089 38.0406 168.982 37.2224 168.748 36.4884C168.067 34.3279 166.236 32.9435 163.745 32.9435C160.361 32.9435 158.381 35.3767 158.381 38.523C158.381 41.9211 160.361 44.2704 163.767 44.2704C166.64 44.2704 168.514 42.6552 168.939 40.7045H165.895C165.746 41.5645 164.959 42.1939 163.767 42.1939ZM163.746 35.0201C164.938 35.0201 165.917 35.7542 166.108 37.3694H161.383C161.617 35.7542 162.532 35.0201 163.745 35.0201H163.746ZM176.603 33.1112C175.326 33.1112 174.368 33.6356 173.644 34.7893H173.602V33.2791H170.855V43.9348H173.836V38.9007C173.836 36.8031 174.815 35.6704 176.645 35.6704C176.96 35.6765 177.274 35.7116 177.582 35.7753V33.2371C177.262 33.1541 176.933 33.1118 176.603 33.1112Z" fill="black"/>
</svg>
