<svg width="35" height="10" viewBox="0 0 35 10" fill="none" xmlns="http://www.w3.org/2000/svg">
<path d="M33.9057 2.18739H1.094C0.490244 2.18739 0.000308543 1.69737 0.000308543 1.0937C0.000308543 0.489936 0.490335 0 1.094 0H33.9057C34.5095 0 34.9994 0.490027 34.9994 1.0937C34.9994 1.69737 34.5094 2.18739 33.9057 2.18739Z" fill="black"/>
<path d="M1.09374 7.31213H22.9682C23.572 7.31213 24.0619 7.80216 24.0619 8.40583C24.0619 9.00959 23.5719 9.49953 22.9682 9.49953H1.09374C0.489979 9.49953 4.33666e-05 9.0095 4.33666e-05 8.40583C-4.75474e-05 7.80207 0.489979 7.31213 1.09374 7.31213Z" fill="black"/>
</svg>
