<svg width="190" height="45" viewBox="0 0 190 45" fill="none" xmlns="http://www.w3.org/2000/svg">
<rect width="190" height="45" rx="5" fill="url(#paint0_linear)"/>
<path d="M90.9996 17.28C92.0023 17.28 92.8663 17.504 93.5916 17.952C94.3276 18.3893 94.893 19.0133 95.2876 19.824C95.693 20.6347 95.8956 21.6 95.8956 22.72C95.8956 23.84 95.693 24.8053 95.2876 25.616C94.893 26.4267 94.3276 27.056 93.5916 27.504C92.8663 27.9413 92.0023 28.16 90.9996 28.16C89.997 28.16 89.1276 27.9413 88.3916 27.504C87.6663 27.056 87.101 26.4267 86.6956 25.616C86.301 24.8053 86.1036 23.84 86.1036 22.72C86.1036 21.6 86.301 20.6347 86.6956 19.824C87.101 19.0133 87.6663 18.3893 88.3916 17.952C89.1276 17.504 89.997 17.28 90.9996 17.28ZM90.9996 18.48C89.901 18.48 89.0316 18.8533 88.3916 19.6C87.7623 20.3467 87.4476 21.3867 87.4476 22.72C87.4476 24.0427 87.7623 25.0827 88.3916 25.84C89.0316 26.5867 89.901 26.96 90.9996 26.96C92.0983 26.96 92.9623 26.5867 93.5916 25.84C94.2316 25.0827 94.5516 24.0427 94.5516 22.72C94.5516 21.3867 94.2316 20.3467 93.5916 19.6C92.9623 18.8533 92.0983 18.48 90.9996 18.48ZM105.418 20L102.298 23.12L105.61 28H104.058L101.37 24.048L99.6743 25.744V28H98.3943V16.32H99.6743V24.144L103.802 20H105.418Z" fill="white"/>
<defs>
<linearGradient id="paint0_linear" x1="-1.24434e-06" y1="23" x2="190" y2="23" gradientUnits="userSpaceOnUse">
<stop stop-color="#00B871"/>
<stop offset="1" stop-color="#2FDF84"/>
</linearGradient>
</defs>
</svg>
