<svg width="13" height="15" viewBox="0 0 13 15" fill="none" xmlns="http://www.w3.org/2000/svg">
<path d="M9.01975 3.66801C9.01975 5.51297 7.80497 6.83599 6.49991 6.83599C5.19475 6.83599 3.97998 5.51296 3.97998 3.66801C3.97998 2.66676 4.09544 1.87993 4.44275 1.3475C4.75793 0.864337 5.32818 0.5 6.49991 0.5C7.67164 0.5 8.24186 0.864336 8.55702 1.34749C8.90431 1.87992 9.01975 2.66675 9.01975 3.66801Z" stroke="#ADBFFF"/>
<path d="M0.79576 12.9364C0.795246 12.8129 0.794731 12.9016 0.79576 12.9364V12.9364Z" fill="white"/>
<path d="M12.2034 13.0331C12.205 12.9992 12.2039 12.7985 12.2034 13.0331V13.0331Z" fill="white"/>
<path d="M12.1968 12.7884C12.1955 12.7033 12.1939 12.6197 12.192 12.5376C12.0623 12.5401 11.9573 12.5938 11.8909 12.6468C11.8185 12.7046 11.7806 12.768 11.7656 12.7949C11.7656 12.795 11.7655 12.7951 11.7655 12.7952L12.1968 12.7884ZM12.1968 12.7884L11.7655 12.7952M12.1968 12.7884L11.7655 12.7952M8.31332 8.15605C9.89823 8.46427 10.6561 8.84172 11.0726 9.41284C11.5283 10.0377 11.6685 11.0078 11.6969 12.7963C11.6969 12.7963 11.6969 12.7963 11.6969 12.7963L11.7655 12.7952M8.31332 8.15605L11.713 13.1389C11.7128 13.138 11.7126 13.1372 11.7125 13.1364C11.7062 13.1051 11.7042 13.0784 11.7041 13.0769L11.7041 13.0768C11.7037 13.0729 11.7034 13.0688 11.7032 13.0648L11.7032 13.0319L12.2022 13.033C12.2022 13.033 12.2022 13.033 12.2022 13.033C12.202 13.0304 12.2018 13.0267 12.2016 13.0218L11.7037 13.0096C11.7038 13.0092 11.7038 13.0082 11.7039 13.0068C11.7041 13.0039 11.7044 12.9989 11.7049 12.9928C11.7052 12.9886 11.7061 12.979 11.7079 12.9667L11.7079 12.9664C11.7084 12.9624 11.714 12.9199 11.7316 12.8703C11.7371 12.8547 11.7477 12.8272 11.7655 12.7952M8.31332 8.15605C8.23453 8.22091 8.1351 8.29326 8.01387 8.3646C7.67445 8.56433 7.17423 8.74998 6.49955 8.74998C5.82488 8.74998 5.32464 8.56433 4.98522 8.36461C4.86396 8.29326 4.76452 8.22091 4.68572 8.15605C3.11904 8.46073 2.36066 8.83303 1.94122 9.39288C1.48513 10.0016 1.33675 10.9446 1.30422 12.6831L1.30422 12.6831C1.3016 12.8229 1.29959 12.9018 1.29796 12.9425C1.29755 12.9527 1.29703 12.9642 1.2963 12.9751C1.29618 12.9769 1.29601 12.9793 1.29579 12.9821L8.31332 8.15605ZM1.29544 12.922L0.798039 12.9301C0.799445 12.8992 0.801466 12.8252 0.804311 12.6737C0.805736 12.5976 0.807369 12.5227 0.809238 12.4489C0.952089 12.4523 1.05893 12.5156 1.12047 12.5679C1.1645 12.6054 1.19644 12.6461 1.21895 12.6815C1.21896 12.6815 1.21896 12.6815 1.21897 12.6815C1.24861 12.7281 1.26187 12.7654 1.26477 12.7735C1.26497 12.7741 1.26512 12.7745 1.26523 12.7748C1.27679 12.806 1.28261 12.8314 1.28496 12.8423C1.29007 12.8658 1.29225 12.8844 1.29288 12.8899C1.29382 12.8979 1.29434 12.9042 1.2946 12.9076C1.29542 12.9183 1.29554 12.9252 1.29544 12.922Z" stroke="#ADBFFF"/>
</svg>
