<svg width="13" height="15" viewBox="0 0 13 15" fill="none" xmlns="http://www.w3.org/2000/svg">
<path d="M6.49991 7.33599C8.16765 7.33599 9.51975 5.69379 9.51975 3.66801C9.51975 1.6422 9.07584 0 6.49991 0C3.92398 0 3.47998 1.6422 3.47998 3.66801C3.47998 5.69379 4.83208 7.33599 6.49991 7.33599Z" fill="white"/>
<path d="M0.79576 12.9364C0.795246 12.8129 0.794731 12.9016 0.79576 12.9364V12.9364Z" fill="white"/>
<path d="M12.2034 13.0331C12.205 12.9993 12.2039 12.7985 12.2034 13.0331V13.0331Z" fill="white"/>
<path d="M12.1968 12.7884C12.1409 9.25944 11.68 8.25388 8.15315 7.61737C8.15315 7.61737 7.6567 8.24998 6.49955 8.24998C5.34241 8.24998 4.84587 7.61737 4.84587 7.61737C1.35751 8.24694 0.868597 9.23758 0.804311 12.6737C0.79904 12.9543 0.796597 12.9691 0.795654 12.9365C0.795869 12.9975 0.796126 13.1104 0.796126 13.3073C0.796126 13.3073 1.63578 14.9999 6.49955 14.9999C11.3632 14.9999 12.203 13.3073 12.203 13.3073C12.203 13.1808 12.2031 13.0928 12.2032 13.033C12.2023 13.0532 12.2004 13.0141 12.1968 12.7884Z" fill="white"/>
</svg>
