<svg width="190" height="45" viewBox="0 0 190 45" fill="none" xmlns="http://www.w3.org/2000/svg">
<rect width="190" height="45" rx="5" fill="url(#paint0_linear)"/>
<path d="M82.4013 17.28C83.3293 17.28 84.1293 17.472 84.8013 17.856C85.4733 18.2293 86.0333 18.784 86.4813 19.52L85.4093 20.352C85.0146 19.6693 84.5666 19.1893 84.0653 18.912C83.5746 18.624 82.9773 18.48 82.2733 18.48C81.4199 18.48 80.7959 18.6507 80.4013 18.992C80.0066 19.3333 79.8093 19.7493 79.8093 20.24C79.8093 20.6133 79.9266 20.944 80.1613 21.232C80.3959 21.5093 80.8653 21.728 81.5693 21.888L83.8573 22.4C84.8706 22.624 85.5746 22.9653 85.9693 23.424C86.3746 23.872 86.5773 24.432 86.5773 25.104C86.5773 25.7013 86.4066 26.2347 86.0653 26.704C85.7346 27.1627 85.2653 27.52 84.6573 27.776C84.0493 28.032 83.3346 28.16 82.5133 28.16C81.3719 28.16 80.4279 27.936 79.6813 27.488C78.9346 27.0293 78.3639 26.4747 77.9693 25.824L79.0893 24.912C79.3986 25.52 79.8359 26.016 80.4013 26.4C80.9773 26.7733 81.7079 26.96 82.5933 26.96C83.4146 26.96 84.0599 26.8107 84.5293 26.512C85.0093 26.2133 85.2493 25.7813 85.2493 25.216C85.2493 24.8747 85.1373 24.5707 84.9133 24.304C84.6893 24.0267 84.2679 23.8187 83.6493 23.68L81.1693 23.12C80.1879 22.9067 79.4893 22.56 79.0733 22.08C78.6679 21.6 78.4653 21.0453 78.4653 20.416C78.4653 19.8507 78.6199 19.3333 78.9293 18.864C79.2493 18.384 79.7026 18 80.2893 17.712C80.8866 17.424 81.5906 17.28 82.4013 17.28ZM93.535 22.832C93.535 22.2347 93.375 21.776 93.055 21.456C92.735 21.1253 92.2817 20.96 91.695 20.96C91.1403 20.96 90.671 21.0827 90.287 21.328C89.903 21.5627 89.6203 21.9467 89.439 22.48L88.399 21.84C88.6123 21.2427 89.007 20.7627 89.583 20.4C90.159 20.0267 90.8737 19.84 91.727 19.84C92.303 19.84 92.8257 19.9413 93.295 20.144C93.7643 20.336 94.1323 20.6347 94.399 21.04C94.6763 21.4347 94.815 21.9467 94.815 22.576V26.448C94.815 26.832 95.0177 27.024 95.423 27.024C95.6257 27.024 95.823 26.9973 96.015 26.944L95.951 27.952C95.7377 28.0587 95.4603 28.112 95.119 28.112C94.7243 28.112 94.383 28.016 94.095 27.824C93.8177 27.632 93.6363 27.3387 93.551 26.944C93.2737 27.36 92.895 27.6693 92.415 27.872C91.935 28.064 91.4603 28.16 90.991 28.16C90.5217 28.16 90.0843 28.08 89.679 27.92C89.2737 27.76 88.9483 27.52 88.703 27.2C88.4683 26.8693 88.351 26.464 88.351 25.984C88.351 25.3867 88.5483 24.896 88.943 24.512C89.3483 24.1173 89.9083 23.8507 90.623 23.712L93.535 23.136V22.832ZM89.663 25.92C89.663 26.2507 89.791 26.5227 90.047 26.736C90.3137 26.9387 90.687 27.04 91.167 27.04C91.583 27.04 91.967 26.9707 92.319 26.832C92.6817 26.6827 92.975 26.464 93.199 26.176C93.423 25.8773 93.535 25.4987 93.535 25.04V24.192L91.215 24.672C90.6923 24.7787 90.303 24.928 90.047 25.12C89.791 25.312 89.663 25.5787 89.663 25.92ZM102.956 20H104.3L100.972 28H99.6919L96.3639 20H97.8199L100.348 26.704L102.956 20ZM109.316 28.16C108.559 28.16 107.882 27.9947 107.284 27.664C106.698 27.3333 106.239 26.8587 105.908 26.24C105.578 25.6107 105.412 24.864 105.412 24C105.412 23.136 105.578 22.3947 105.908 21.776C106.239 21.1467 106.692 20.6667 107.268 20.336C107.844 20.0053 108.5 19.84 109.236 19.84C109.983 19.84 110.618 20 111.14 20.32C111.674 20.64 112.079 21.0773 112.356 21.632C112.634 22.176 112.772 22.7893 112.772 23.472C112.772 23.6533 112.767 23.8187 112.756 23.968C112.746 24.1173 112.73 24.2507 112.708 24.368H106.676C106.74 25.2107 107.002 25.8667 107.46 26.336C107.919 26.8053 108.527 27.04 109.284 27.04C109.871 27.04 110.346 26.928 110.708 26.704C111.082 26.48 111.38 26.176 111.604 25.792L112.612 26.384C112.314 26.928 111.882 27.36 111.316 27.68C110.762 28 110.095 28.16 109.316 28.16ZM109.204 20.96C108.532 20.96 107.978 21.1627 107.54 21.568C107.114 21.9627 106.842 22.5173 106.724 23.232H111.492C111.46 22.5067 111.236 21.9467 110.82 21.552C110.404 21.1573 109.866 20.96 109.204 20.96Z" fill="white"/>
<defs>
<linearGradient id="paint0_linear" x1="-1.24434e-06" y1="23" x2="190" y2="23" gradientUnits="userSpaceOnUse">
<stop stop-color="#00B871"/>
<stop offset="1" stop-color="#2FDF84"/>
</linearGradient>
</defs>
</svg>
